<?xml version='1.0' encoding='utf-8'?>
<svg xmlns="http://www.w3.org/2000/svg" version="1.1" id="Layer_1" x="0px" y="0px" viewBox="0 0 92.2 80" style="enable-background:new 0 0 92.2 80;" xml:space="preserve">
<g>
	<path class="t4f4486a" d="M92.2,14.2C64-1,43.2,32.3,32.9,50.7C22.6,69,8.3,80,8.3,80c17,0,39.5-36.1,50.9-53.5S92.2,14.2,92.2,14.2z" fill="#FCC440" />
	<path class="gc55d8d4" d="M56.2,8.4c0,0-10.2-8.4-21-8.4C24.3,0,10.4,15.9,0,21c0,0,9.2-2.9,22.2-11C35.2,1.9,53.2,7.2,56.2,8.4z" fill="#1D1C1E" />
	<path class="gc55d8d4" d="M36.9,15.7c0,2.3,1.9,4.2,4.2,4.2s4.2-1.9,4.2-4.2c0-2.3-1.9-4.2-4.2-4.2S36.9,13.4,36.9,15.7z M43.4,14.4   c0,1.4-1.1,2.5-2.5,2.5s-2.5-1.1-2.5-2.5s1.1-2.5,2.5-2.5S43.4,13.1,43.4,14.4z" fill="#1D1C1E" />
</g>
</svg>